<svg width="100%" viewBox="0 0 680 260" xmlns="http://www.w3.org/2000/svg" role="img">
<title>Study 2 — 설득형 지식 기반 상품 추천 AI 에이전트 구조</title>
<desc>사용자 자연어 질의가 질의 해석기에서 의도·상황·맥락으로 해석되고, 설득형 지식 기반 시맨틱 검색과 재정렬을 거쳐 설명형 추천 응답을 생성하며, 대화 메모리가 맥락을 유지하는 구조</desc>
<defs><marker id="ps2" viewBox="0 0 10 10" refX="8" refY="5" markerWidth="6" markerHeight="6" orient="auto-start-reverse"><path d="M2 1L8 5L2 9" fill="none" stroke="#5F5E5A" stroke-width="1.5" stroke-linecap="round" stroke-linejoin="round"></path></marker></defs>
<rect width="680" height="260" fill="#ffffff"></rect>

<g><rect x="10" y="60" width="120" height="75" rx="8" fill="#F1EFE8" stroke="#5F5E5A" stroke-width="0.5"></rect><text x="70" y="90" text-anchor="middle" font-family="sans-serif" font-size="11.5" font-weight="600" fill="#444441">사용자 인터페이스</text><text x="70" y="108" text-anchor="middle" font-family="sans-serif" font-size="10" fill="#5F5E5A">자연어 질의</text></g>

<g><rect x="145" y="60" width="120" height="75" rx="8" fill="#EEEDFE" stroke="#534AB7" stroke-width="0.5"></rect><text x="205" y="90" text-anchor="middle" font-family="sans-serif" font-size="11.5" font-weight="600" fill="#26215C">질의 해석기</text><text x="205" y="108" text-anchor="middle" font-family="sans-serif" font-size="10" fill="#3C3489">의도·상황·맥락</text></g>

<g><rect x="280" y="60" width="120" height="75" rx="8" fill="#E1F5EE" stroke="#0F6E56" stroke-width="0.5"></rect><text x="340" y="90" text-anchor="middle" font-family="sans-serif" font-size="11.5" font-weight="600" fill="#085041">시맨틱 검색</text><text x="340" y="108" text-anchor="middle" font-family="sans-serif" font-size="10" fill="#0F6E56">설득형 지식 검색</text></g>

<g><rect x="415" y="60" width="120" height="75" rx="8" fill="#FFF6E3" stroke="#A76500" stroke-width="0.5"></rect><text x="475" y="90" text-anchor="middle" font-family="sans-serif" font-size="11.5" font-weight="600" fill="#7A4B00">재정렬 모듈</text><text x="475" y="108" text-anchor="middle" font-family="sans-serif" font-size="10" fill="#A76500">후보 우선순위</text></g>

<g><rect x="550" y="60" width="120" height="75" rx="8" fill="#FAECE7" stroke="#993C1D" stroke-width="0.5"></rect><text x="610" y="90" text-anchor="middle" font-family="sans-serif" font-size="11.5" font-weight="600" fill="#712B13">응답 생성기</text><text x="610" y="108" text-anchor="middle" font-family="sans-serif" font-size="10" fill="#993C1D">설명형 추천 응답</text></g>

<line x1="130" y1="97" x2="140" y2="97" stroke="#5F5E5A" stroke-width="1" marker-end="url(#ps2)"></line>
<line x1="265" y1="97" x2="275" y2="97" stroke="#5F5E5A" stroke-width="1" marker-end="url(#ps2)"></line>
<line x1="400" y1="97" x2="410" y2="97" stroke="#5F5E5A" stroke-width="1" marker-end="url(#ps2)"></line>
<line x1="535" y1="97" x2="545" y2="97" stroke="#5F5E5A" stroke-width="1" marker-end="url(#ps2)"></line>

<g><rect x="240" y="175" width="200" height="55" rx="8" fill="#F1EFE8" stroke="#5F5E5A" stroke-width="0.5"></rect><text x="340" y="198" text-anchor="middle" font-family="sans-serif" font-size="12" font-weight="600" fill="#444441">대화 메모리</text><text x="340" y="216" text-anchor="middle" font-family="sans-serif" font-size="10.5" fill="#5F5E5A">이전 대화·사용자 맥락 유지</text></g>
<path d="M300,175 C260,150 215,130 205,135" fill="none" stroke="#5F5E5A" stroke-width="1" marker-end="url(#ps2)"></path>
<path d="M420,200 C500,200 545,150 545,135" fill="none" stroke="#5F5E5A" stroke-width="1" marker-end="url(#ps2)"></path>
</svg>